<svg xmlns="http://www.w3.org/2000/svg" width="720" height="360" viewBox="0 0 720 360" font-family="-apple-system, BlinkMacSystemFont, Segoe UI, Roboto, sans-serif">
  <defs>
    <linearGradient id="neuronGrad" x1="0%" y1="0%" x2="100%" y2="100%">
      <stop offset="0%" stop-color="#818cf8"/>
      <stop offset="100%" stop-color="#6366f1"/>
    </linearGradient>
    <linearGradient id="outGrad" x1="0%" y1="0%" x2="100%" y2="100%">
      <stop offset="0%" stop-color="#34d399"/>
      <stop offset="100%" stop-color="#10b981"/>
    </linearGradient>
    <filter id="shadow" x="-5%" y="-5%" width="115%" height="115%">
      <feDropShadow dx="0" dy="2" stdDeviation="3" flood-opacity="0.12"/>
    </filter>
    <marker id="arrowPurple" markerWidth="8" markerHeight="6" refX="8" refY="3" orient="auto">
      <path d="M0,0 L8,3 L0,6 Z" fill="#6366f1"/>
    </marker>
    <marker id="arrowGreen" markerWidth="8" markerHeight="6" refX="8" refY="3" orient="auto">
      <path d="M0,0 L8,3 L0,6 Z" fill="#10b981"/>
    </marker>
  </defs>

  <rect width="720" height="360" rx="16" fill="#f8fafc" stroke="#e2e8f0" stroke-width="1"/>
  <text x="360" y="30" text-anchor="middle" font-size="16" font-weight="700" fill="#1e293b">A Single Neuron: Predicting House Price</text>

  <!-- Input labels -->
  <rect x="18" y="78" width="80" height="28" rx="6" fill="#dbeafe" stroke="#93c5fd" stroke-width="1"/>
  <text x="58" y="97" text-anchor="middle" font-size="9" font-weight="600" fill="#1e40af">sq footage</text>

  <rect x="18" y="150" width="80" height="28" rx="6" fill="#dbeafe" stroke="#93c5fd" stroke-width="1"/>
  <text x="58" y="169" text-anchor="middle" font-size="9" font-weight="600" fill="#1e40af">bedrooms</text>

  <rect x="18" y="222" width="80" height="28" rx="6" fill="#dbeafe" stroke="#93c5fd" stroke-width="1"/>
  <text x="58" y="241" text-anchor="middle" font-size="9" font-weight="600" fill="#1e40af">age (years)</text>

  <!-- Input value circles -->
  <circle cx="135" cy="92" r="22" fill="#e0e7ff" stroke="#818cf8" stroke-width="2" filter="url(#shadow)"/>
  <circle cx="135" cy="164" r="22" fill="#e0e7ff" stroke="#818cf8" stroke-width="2" filter="url(#shadow)"/>
  <circle cx="135" cy="236" r="22" fill="#e0e7ff" stroke="#818cf8" stroke-width="2" filter="url(#shadow)"/>
  <text x="135" y="97" text-anchor="middle" font-size="12" font-weight="600" fill="#4338ca">1500</text>
  <text x="135" y="169" text-anchor="middle" font-size="12" font-weight="600" fill="#4338ca">3</text>
  <text x="135" y="241" text-anchor="middle" font-size="12" font-weight="600" fill="#4338ca">10</text>

  <!-- Connection lines -->
  <line x1="157" y1="92" x2="310" y2="168" stroke="#94a3b8" stroke-width="2.5" opacity="0.7"/>
  <line x1="157" y1="164" x2="310" y2="168" stroke="#94a3b8" stroke-width="2.5" opacity="0.7"/>
  <line x1="157" y1="236" x2="310" y2="168" stroke="#94a3b8" stroke-width="1.5" opacity="0.5"/>

  <!-- Weight labels -->
  <rect x="198" y="108" width="58" height="22" rx="4" fill="#fef3c7" stroke="#f59e0b" stroke-width="1"/>
  <text x="227" y="123" text-anchor="middle" font-size="9" font-weight="600" fill="#92400e">w1 = 0.2</text>

  <rect x="198" y="150" width="64" height="22" rx="4" fill="#fef3c7" stroke="#f59e0b" stroke-width="1"/>
  <text x="230" y="165" text-anchor="middle" font-size="9" font-weight="600" fill="#92400e">w2 = 50.0</text>

  <rect x="198" y="200" width="58" height="22" rx="4" fill="#fef3c7" stroke="#f59e0b" stroke-width="1"/>
  <text x="227" y="215" text-anchor="middle" font-size="9" font-weight="600" fill="#92400e">w3 = -2.0</text>

  <!-- Main neuron -->
  <circle cx="350" cy="168" r="42" fill="url(#neuronGrad)" filter="url(#shadow)"/>
  <text x="350" y="160" text-anchor="middle" font-size="10" fill="white" font-weight="600">multiply</text>
  <text x="350" y="175" text-anchor="middle" font-size="10" fill="white" font-weight="600">+ add up</text>
  <text x="350" y="190" text-anchor="middle" font-size="9" fill="#c7d2fe">+ bias</text>

  <!-- Arrow to activation -->
  <line x1="392" y1="168" x2="450" y2="168" stroke="#6366f1" stroke-width="2.5" marker-end="url(#arrowPurple)"/>

  <!-- Activation box -->
  <rect x="455" y="143" width="90" height="50" rx="10" fill="#ecfdf5" stroke="#34d399" stroke-width="2" filter="url(#shadow)"/>
  <text x="500" y="165" text-anchor="middle" font-size="11" font-weight="600" fill="#065f46">Activation</text>
  <text x="500" y="181" text-anchor="middle" font-size="10" fill="#047857">ReLU</text>

  <!-- Arrow to output -->
  <line x1="545" y1="168" x2="590" y2="168" stroke="#10b981" stroke-width="2.5" marker-end="url(#arrowGreen)"/>

  <!-- Output -->
  <circle cx="622" cy="168" r="28" fill="url(#outGrad)" filter="url(#shadow)"/>
  <text x="622" y="164" text-anchor="middle" font-size="10" font-weight="700" fill="white">$430k</text>
  <text x="622" y="178" text-anchor="middle" font-size="9" fill="#d1fae5">price</text>

  <!-- Bias label -->
  <line x1="350" y1="235" x2="350" y2="215" stroke="#f472b6" stroke-width="1.5" stroke-dasharray="4,3"/>
  <rect x="318" y="238" width="64" height="22" rx="4" fill="#fce7f3" stroke="#f472b6" stroke-width="1"/>
  <text x="350" y="253" text-anchor="middle" font-size="9" font-weight="600" fill="#9d174d">bias = 50.0</text>

  <!-- Calculation breakdown -->
  <rect x="40" y="280" width="640" height="60" rx="8" fill="#f0f0ff" stroke="#c7d2fe" stroke-width="1"/>
  <text x="360" y="302" text-anchor="middle" font-size="11" font-weight="600" fill="#4338ca">The math: (1500 x 0.2) + (3 x 50) + (10 x -2.0) + 50 = 300 + 150 - 20 + 50 = 480</text>
  <text x="360" y="322" text-anchor="middle" font-size="11" fill="#64748b">Bigger house and more bedrooms push price UP. Older building pushes it DOWN. Bias is a baseline.</text>

  <!-- Legend -->
  <rect x="40" y="345" width="640" height="3" rx="1" fill="#e2e8f0"/>
</svg>
